<?xml version="1.0" encoding="UTF-8" standalone="no"?>
<svg
   xmlns:dc="http://purl.org/dc/elements/1.1/"
   xmlns:cc="http://creativecommons.org/ns#"
   xmlns:rdf="http://www.w3.org/1999/02/22-rdf-syntax-ns#"
   xmlns:svg="http://www.w3.org/2000/svg"
   xmlns="http://www.w3.org/2000/svg"
   xmlns:sodipodi="http://sodipodi.sourceforge.net/DTD/sodipodi-0.dtd"
   xmlns:inkscape="http://www.inkscape.org/namespaces/inkscape"
   inkscape:version="1.0 (4035a4fb49, 2020-05-01)"
   inkscape:export-ydpi="47.893154"
   inkscape:export-xdpi="47.893154"
   inkscape:export-filename="C:\Users\jivem\Documents\Programming\piHud\img\Bitcoin.png"
   sodipodi:docname="Bitcoin.svg"
   id="svg8"
   version="1.1"
   width="64"
   height="64">
  <metadata
     id="metadata14">
    <rdf:RDF>
      <cc:Work
         rdf:about="">
        <dc:format>image/svg+xml</dc:format>
        <dc:type
           rdf:resource="http://purl.org/dc/dcmitype/StillImage" />
      </cc:Work>
    </rdf:RDF>
  </metadata>
  <defs
     id="defs12" />
  <sodipodi:namedview
     inkscape:current-layer="svg8"
     inkscape:window-maximized="1"
     inkscape:window-y="-8"
     inkscape:window-x="-8"
     inkscape:cy="32.008912"
     inkscape:cx="31.988881"
     inkscape:zoom="18.50559"
     showgrid="false"
     id="namedview10"
     inkscape:window-height="1377"
     inkscape:window-width="2560"
     inkscape:pageshadow="2"
     inkscape:pageopacity="0"
     guidetolerance="10"
     gridtolerance="10"
     objecttolerance="10"
     borderopacity="1"
     bordercolor="#666666"
     pagecolor="#ffffff" />
  <rect
     y="0"
     x="0"
     height="64"
     width="64"
     id="rect851"
     style="fill:#ffffff;stroke:none;stroke-width:3.77953" />
  <g
     id="g6"
     transform="matrix(1.0001065,0,0,0.99998985,0.00246082,-0.00240431)">
    <path
       id="path2"
       d="M 63.033,39.744 C 58.759,56.887 41.396,67.32 24.251,63.045 7.113,58.771 -3.32,41.407 0.956,24.265 5.228,7.12 22.591,-3.314 39.731,0.96 56.875,5.234 67.307,22.6 63.033,39.744 Z"
       fill="#f7931a" />
    <path
       id="path4"
       d="M 46.103,27.444 C 46.74,23.186 43.498,20.897 39.065,19.37 l 1.438,-5.768 -3.511,-0.875 -1.4,5.616 c -0.923,-0.23 -1.871,-0.447 -2.813,-0.662 l 1.41,-5.653 -3.509,-0.875 -1.439,5.766 c -0.764,-0.174 -1.514,-0.346 -2.242,-0.527 l 0.004,-0.018 -4.842,-1.209 -0.934,3.75 c 0,0 2.605,0.597 2.55,0.634 1.422,0.355 1.679,1.296 1.636,2.042 l -1.638,6.571 c 0.098,0.025 0.225,0.061 0.365,0.117 -0.117,-0.029 -0.242,-0.061 -0.371,-0.092 l -2.296,9.205 c -0.174,0.432 -0.615,1.08 -1.609,0.834 0.035,0.051 -2.552,-0.637 -2.552,-0.637 l -1.743,4.019 4.569,1.139 c 0.85,0.213 1.683,0.436 2.503,0.646 l -1.453,5.834 3.507,0.875 1.439,-5.772 c 0.958,0.26 1.888,0.5 2.798,0.726 l -1.434,5.745 3.511,0.875 1.453,-5.823 c 5.987,1.133 10.489,0.676 12.384,-4.739 1.527,-4.36 -0.076,-6.875 -3.226,-8.515 2.294,-0.529 4.022,-2.038 4.483,-5.155 z m -8.022,11.249 c -1.085,4.36 -8.426,2.003 -10.806,1.412 l 1.928,-7.729 c 2.38,0.594 10.012,1.77 8.878,6.317 z m 1.086,-11.312 c -0.99,3.966 -7.1,1.951 -9.082,1.457 l 1.748,-7.01 c 1.982,0.494 8.365,1.416 7.334,5.553 z"
       fill="#ffffff" />
  </g>
  <path
     id="path845"
     d="M 30.857143,63.930178 C 25.700442,63.76273 20.52274,62.275424 15.968254,59.65331 12.408773,57.604042 8.9640997,54.53782 6.4320876,51.16484 3.1953305,46.853046 1.0082346,41.514287 0.32133316,36.248327 -0.03084295,33.548456 -0.04246616,30.693814 0.2878778,28.031746 0.68351689,24.843499 1.6576653,21.469309 3.0466226,18.47619 5.728064,12.697847 10.140724,7.8378095 15.745849,4.4894545 c 0.944653,-0.564311 3.10581,-1.6394126 4.158913,-2.0689165 3.090649,-1.2605095 6.228628,-2.00704559 9.650794,-2.29595774 1.050734,-0.08870698 3.760747,-0.08853451 4.829664,3.0738e-4 6.199101,0.5152316 11.951934,2.67403676 16.757637,6.28846286 1.245465,0.9367282 1.987062,1.5758647 3.166926,2.7293752 2.651178,2.5919593 4.620942,5.2977483 6.287958,8.6375253 1.695705,3.397256 2.698941,6.777413 3.183992,10.727686 0.140578,1.144896 0.196286,4.558404 0.09505,5.824779 -0.494717,6.188729 -2.666097,11.991654 -6.290137,16.810141 -0.936729,1.245465 -1.575865,1.987062 -2.729376,3.166926 -2.001605,2.047337 -4.11384,3.711265 -6.603306,5.201802 -0.922283,0.552206 -3.412491,1.778705 -4.412698,2.173381 -3.358327,1.325177 -7.036009,2.122717 -10.253968,2.223675 -0.576191,0.01808 -1.133334,0.03983 -1.238096,0.04834 -0.104762,0.0085 -0.77619,-0.0036 -1.492063,-0.0268 z M 31.10569,51.444444 c 0.03463,-0.130952 0.354008,-1.409523 0.709727,-2.841269 0.35572,-1.431746 0.66704,-2.626015 0.691825,-2.653931 0.02478,-0.02791 0.385079,0.0067 0.800656,0.07688 2.389359,0.403598 4.563034,0.449969 6.129932,0.13077 2.677825,-0.545509 4.519989,-2.282332 5.487505,-5.173709 0.34286,-1.024624 0.471697,-1.687485 0.511951,-2.633976 0.03054,-0.718035 0.01524,-0.959286 -0.09428,-1.486525 -0.329705,-1.587208 -1.396333,-2.954317 -3.079017,-3.94641 L 41.718145,32.59445 42.049551,32.5121 c 0.182273,-0.04529 0.569791,-0.192727 0.861153,-0.327634 1.638551,-0.758687 2.634586,-2.06448 3.103781,-4.069032 0.217231,-0.928076 0.243407,-2.354256 0.05631,-3.067814 -0.612829,-2.337204 -2.683226,-4.130626 -6.309556,-5.465472 -0.502304,-0.184897 -0.644473,-0.26264 -0.620927,-0.339546 0.145653,-0.47576 1.366635,-5.517732 1.353177,-5.587872 -0.01214,-0.06327 -0.543857,-0.223548 -1.731691,-0.521997 -0.942796,-0.236881 -1.732103,-0.43151 -1.754016,-0.432507 -0.02191,-9.96e-4 -0.347289,1.233902 -0.723056,2.744219 -0.375768,1.510318 -0.701975,2.767311 -0.724905,2.793319 -0.0357,0.04049 -2.64193,-0.536808 -2.704099,-0.598978 -0.01227,-0.01226 0.291233,-1.275433 0.674442,-2.807039 0.383209,-1.531606 0.683259,-2.798222 0.666779,-2.814702 -0.04561,-0.04561 -3.492203,-0.901673 -3.519664,-0.874212 -0.01319,0.01319 -0.336096,1.275731 -0.717574,2.805652 -0.381477,1.529921 -0.704865,2.814056 -0.718638,2.853633 -0.03038,0.08728 -0.570334,-0.03543 -4.340367,-0.986459 -1.880268,-0.474315 -2.758238,-0.670344 -2.775832,-0.619777 -0.115213,0.33113 -0.914956,3.685983 -0.885663,3.715276 0.02077,0.02077 0.630309,0.18377 1.354528,0.362219 1.819114,0.448232 2.308508,0.697009 2.602805,1.323099 0.296579,0.630944 0.384112,0.192881 -1.76382,8.827136 -1.438763,5.783539 -2.016076,8.004846 -2.131733,8.2022 -0.40965,0.699016 -0.788618,0.738588 -2.63256,0.274894 -0.804377,-0.202275 -1.358069,-0.312794 -1.389043,-0.277257 -0.07814,0.08965 -1.74404,3.964831 -1.71627,3.992355 0.01331,0.01319 1.581337,0.414834 3.484512,0.892543 1.903175,0.47771 3.480164,0.88733 3.504422,0.910267 0.02426,0.02294 -0.28108,1.34113 -0.678525,2.929318 -0.397446,1.588187 -0.717293,2.891012 -0.710771,2.895166 0.04089,0.02605 3.422484,0.852141 3.488221,0.852141 0.0542,0 0.313257,-0.931369 0.778623,-2.799368 0.383567,-1.539652 0.714198,-2.826712 0.734736,-2.860132 0.03115,-0.0507 2.622295,0.583685 2.699526,0.660917 0.01285,0.01285 -0.293742,1.301497 -0.681311,2.863662 -0.38757,1.562166 -0.694336,2.848772 -0.681701,2.859124 0.03937,0.03226 3.318444,0.850974 3.433222,0.857202 0.07411,0.004 0.128686,-0.06982 0.171629,-0.232199 z"
     style="fill:#000000;stroke:#000000;stroke-width:0.23997" />
  <path
     id="path847"
     d="m 34.412698,29.710572 c -0.331746,-0.03091 -0.974603,-0.128418 -1.428571,-0.216675 -0.870507,-0.169238 -2.746358,-0.63179 -2.806635,-0.692066 -0.04345,-0.04345 1.628195,-6.778157 1.702936,-6.86077 0.06526,-0.07214 1.59288,0.263716 2.767055,0.608347 3.017476,0.885657 4.496294,2.113744 4.578473,3.8022 0.06237,1.281412 -0.568033,2.443502 -1.593774,2.937989 -0.792596,0.382093 -1.976077,0.536843 -3.219484,0.420975 z"
     style="fill:#000000;stroke:#000000;stroke-width:0.23997" />
  <path
     id="path849"
     d="m 31.97079,41.110351 c -0.848591,-0.119718 -2.24474,-0.414305 -3.558092,-0.750757 -0.951178,-0.243672 -1.076874,-0.29087 -1.05839,-0.397417 0.04426,-0.255165 1.86111,-7.484473 1.88764,-7.511003 0.05808,-0.05808 2.79221,0.602809 3.78985,0.916072 2.467848,0.774913 4.129486,1.818232 4.759763,2.988588 0.827008,1.535662 0.206222,3.558456 -1.330077,4.333977 -0.774627,0.39103 -1.186192,0.469002 -2.588468,0.490389 -0.848763,0.01295 -1.47954,-0.01022 -1.902226,-0.06985 z"
     style="fill:#000000;stroke:#000000;stroke-width:0.23997" />
</svg>
